<svg viewBox="0 0 279.44172882833794 140.60052000000002" height="140.60052000000002" width="279.44172882833794"><g><path d="M0 140.601v-140.601h279.442v140.601z" fill="#ffffff" stroke="transparent" stroke-width="0" rx="0%" data-fill-palette-color="tertiary"></path><path d="M3.283 137.317v-134.034h272.875v134.034z" fill="#444444" stroke="transparent" stroke-width="0" rx="0%" data-fill-palette-color="quaternary"></path><path d="M9.85 130.751v-120.901h259.742v120.901z" fill="#ffffff" stroke="transparent" stroke-width="0" data-fill-palette-color="tertiary"></path></g><g transform="matrix(1,0,0,1,19.699740000000013,19.69974)" id="textblocktransform"><svg viewBox="0 0 240.04224882833793 101.20104000000002" height="101.20104000000002" width="240.04224882833793" id="textblock"><g><svg viewBox="0 0 240.04224882833793 101.20104000000002" height="101.20104000000002" width="240.04224882833793"><g transform="matrix(1,0,0,1,0,0)"><svg width="240.04224882833793" viewBox="5.320000171661377 -35.29999923706055 85.01000213623047 35.84000015258789" height="101.20104000000002" data-palette-color="#444444"><path d="M19.38 0L5.32 0 5.32-35.3 19.34-35.3Q24.24-35.3 27.17-33.73 30.1-32.15 31.41-29.47 32.71-26.78 32.71-23.41L32.71-23.41 32.71-11.77Q32.71-6.03 29.41-3.02 26.1 0 19.38 0L19.38 0ZM10.25-31.62L10.25-3.66 18.9-3.66Q21.44-3.66 23.45-4.21 25.46-4.76 26.64-6.4 27.81-8.03 27.81-11.28L27.81-11.28 27.81-23.71Q27.81-26.98 26.62-28.67 25.44-30.37 23.43-30.99 21.41-31.62 18.9-31.62L18.9-31.62 10.25-31.62ZM40.77-9.13L40.77-9.13 40.77-18.14Q40.77-21.8 43.28-24.08 45.8-26.37 51.36-26.37L51.36-26.37Q56.69-26.37 59.2-24.28 61.72-22.19 61.72-18.51L61.72-18.51 61.72-12.35 45.36-12.35 45.36-8.72Q45.36-5.57 46.62-4.27 47.87-2.98 51.54-2.98L51.54-2.98Q53.71-2.98 54.97-3.14 56.22-3.3 56.82-4.11 57.42-4.93 57.61-6.88L57.61-6.88 61.67-6.88Q61.35-3.83 60.34-2.23 59.32-0.63 57.22-0.05 55.12 0.54 51.54 0.54L51.54 0.54Q45.75 0.54 43.26-1.88 40.77-4.3 40.77-9.13ZM45.36-15.45L57.27-15.45 57.27-18.99Q57.27-21.34 55.65-22.09 54.03-22.85 51.36-22.85L51.36-22.85Q48.63-22.85 46.99-21.9 45.36-20.95 45.36-18.55L45.36-18.55 45.36-15.45ZM76.53 0L66.5-25.88 71.11-25.88 78.9-4.88 85.83-25.88 90.33-25.88 81.17 0 76.53 0Z" opacity="1" transform="matrix(1,0,0,1,0,0)" fill="#444444" class="wordmark-text-0" data-fill-palette-color="quaternary" id="text-0"></path></svg></g></svg></g></svg></g></svg>